<?xml version="1.0" encoding="utf-8"?>
<!-- Generator: Adobe Illustrator 27.1.1, SVG Export Plug-In . SVG Version: 6.00 Build 0)  -->
<svg version="1.1" xmlns="http://www.w3.org/2000/svg" xmlns:xlink="http://www.w3.org/1999/xlink" x="0px" y="0px"
	 viewBox="0 0 581.6 178.6" style="enable-background:new 0 0 581.6 178.6;" xml:space="preserve">
<style type="text/css">
	.st0{fill:#009CDE;}
	.st1{fill:#888B8D;}
	.st2{fill:#3F9C35;}
	.st3{fill:#63666A;}
	.st4{fill:none;}
</style>
<g id="Artwork">
	<g>
		<rect x="134.6" y="29.8" class="st0" width="178.6" height="29.8"/>
		<rect x="29.8" y="29.8" class="st1" width="22.7" height="29.8"/>
		<rect x="65.2" y="29.8" class="st2" width="56.7" height="29.8"/>
		<path class="st3" d="M183.8,104c0-7-2.4-12.7-6.9-16.3c-4.6-3.7-10-4.6-18-4.6h-24.2v64.6h13.1v-53h11.6c3.3,0,5.7,0.4,7.2,1.4
			c2.3,1.4,3.7,3.9,3.7,7.8c0,6.7-4.2,9.1-9.6,9.1h-8.8v11.7h5.2l13.7,23H186l-15.2-25.2C179.7,120.1,183.8,112.8,183.8,104z"/>
		<path class="st3" d="M223.6,111.3c-9.3-3.2-19.8-3.6-19.8-10.7c0-4.6,4.2-6.7,10.1-6.7c5.8,0,11,0.5,19.7,2.9V85.1
			c-7.5-2.1-12.9-2.9-20-2.9c-12.8,0-23.6,5.1-23.6,18.1c0,10.3,5.1,15.4,15.2,18.9c9,3.1,19.1,3.7,19.1,10.6c0,5.2-5,7.4-12.3,7.4
			c-7.1,0-11.5-0.5-20.6-3V146c7.6,2.2,13.9,2.9,21.2,2.9c16.1,0,25.5-7,25.5-20C238,118.5,231.3,113.9,223.6,111.3z"/>
		<polygon class="st3" points="296.1,83.2 273,147.9 285.5,147.9 300.2,106.8 300.4,106.8 300.4,147.9 313.2,147.9 313.2,83.2 		"/>
		<polygon class="st3" points="277.5,123.5 262.4,83.2 245,83.2 245,147.9 257.7,147.9 257.7,106.8 257.9,106.8 271,141.6 		"/>
	</g>
</g>
<g id="Clear_Space">
	<g>
		<rect x="256.5" class="st4" width="56.7" height="29.8"/>
		<rect x="312.8" y="21.3" class="st4" width="38.7" height="73.7"/>
		<rect y="29.8" class="st4" width="29.8" height="56.7"/>
		<rect x="189.1" y="148.8" class="st4" width="56.7" height="29.8"/>
	</g>
	<g>
		<g>
			<path class="st3" d="M380.3,58h-21.5v16.3h23.7v6.9h-30.9V29.8h30.9v6.9h-23.7v14.5h21.5V58z"/>
		</g>
		<g>
			<path class="st3" d="M390.3,29.8h16.8c12.3,0,16.5,6.4,16.5,14.1c0,3.8-1.7,7.8-5,10.2c4.6,2.3,6.7,7.1,6.7,12.1
				c0,8.3-4.5,15-17.7,15h-17.2V29.8z M407.4,36.6h-9.8v14.5H408c6.3,0,7.9-3.7,7.9-7.3C415.9,40.3,414.6,36.6,407.4,36.6z
				 M397.6,74.4h10.2c8.1,0,9.7-4.1,9.7-8.1c0-5.7-2.5-8.2-9.5-8.2h-10.4V74.4z"/>
			<path class="st3" d="M463.7,81.2l-23.9-37.3l0.1,37.3h-7V29.8h5.7l23.9,37.3l-0.1-37.3h7v51.5H463.7z"/>
		</g>
		<g>
			<path class="st3" d="M507.5,58h-21.5v16.3h23.7v6.9h-30.9V29.8h30.9v6.9h-23.7v14.5h21.5V58z"/>
		</g>
		<path class="st3" d="M524.8,81.2h-7.2V29.8h16.6c13.2,0,17.4,5.8,17.4,15c0,6.7-2.1,11.6-8.5,13.9c3.8,7.1,8.4,15.6,12,22.6h-8.9
			l-10.5-21.4h-10.8V81.2z M524.8,53h10.4c7.5,0,8.6-3.6,8.6-8.2c0-4.5-1.1-8.1-8.6-8.1h-10.4V53z"/>
		<g>
			<path class="st3" d="M360.3,110.6c0,5.6,3.8,6.2,10.8,7.1c10.4,1.2,16.4,4.6,16.4,14.7c0,7.3-3.8,16.3-19.5,16.3
				c-4.7,0-11.3-1.4-15-3.1v-7.1c4.7,1.9,7.5,3.3,15.1,3.3c9.2,0,11.9-4.3,11.9-9.4c0-5.6-2.7-6.9-10.2-7.8h0.1
				c-12.3-1.6-16.9-5.2-16.9-14.1c0-6.2,2.9-15.1,17.8-15.1c6.2,0,10.8,1.3,14.1,2.8v7.3c-5.6-2.6-9.4-3.2-14.1-3.2
				C362.1,102.3,360.3,106.2,360.3,110.6z"/>
		</g>
		<g>
			<path class="st3" d="M413,103.2v44.6h-7.2v-44.6h-13.6v-6.9h34.4v6.9H413z"/>
			<path class="st3" d="M450.9,148.7c-17.2,0-19.6-13.2-19.6-26.6s2.3-26.6,19.6-26.6c17.3,0,19.6,13.2,19.6,26.6
				S468.2,148.7,450.9,148.7z M450.9,102.3c-10.6,0-12.1,9.1-12.1,19.8s1.5,19.8,12.1,19.8c10.6,0,12.1-9.1,12.1-19.8
				S461.6,102.3,450.9,102.3z"/>
			<path class="st3" d="M486.2,140.9h22.5v6.9H479V96.3h7.2V140.9z"/>
			<path class="st3" d="M514.7,147.8v-4.7l26.5-39.9H516v-6.9h34.9v4.7l-26.6,39.9h27.5v6.9H514.7z"/>
		</g>
	</g>
	<rect x="551.9" y="91.3" class="st4" width="29.8" height="56.7"/>
</g>
</svg>
